<?xml version="1.0" encoding="UTF-8"?>
<!DOCTYPE svg PUBLIC "-//W3C//DTD SVG 1.1//EN" "http://www.w3.org/Graphics/SVG/1.1/DTD/svg11.dtd">
<svg xmlns="http://www.w3.org/2000/svg" version="1.1" width="1000px" height="1000px" style="shape-rendering:geometricPrecision; text-rendering:geometricPrecision; image-rendering:optimizeQuality; fill-rule:evenodd; clip-rule:evenodd" xmlns:xlink="http://www.w3.org/1999/xlink">
<g><path style="opacity:1" fill="#faf6a2" d="M -0.5,-0.5 C 332.833,-0.5 666.167,-0.5 999.5,-0.5C 999.5,332.833 999.5,666.167 999.5,999.5C 951.5,999.5 903.5,999.5 855.5,999.5C 915.577,828.417 911.077,659.084 842,491.5C 766.179,323.346 643.679,202.513 474.5,129C 332.129,71.886 186.462,61.886 37.5,99C 24.6654,102.334 11.9988,106.168 -0.5,110.5C -0.5,73.5 -0.5,36.5 -0.5,-0.5 Z"/></g>
<g><path style="opacity:1" fill="#ff8b20" d="M 855.5,999.5 C 816.833,999.5 778.167,999.5 739.5,999.5C 793.999,874.491 804.499,745.824 771,613.5C 726.522,456.929 634.022,338.096 493.5,257C 365.842,188.239 230.842,168.239 88.5,197C 58.2146,203.821 28.5479,212.654 -0.5,223.5C -0.5,185.833 -0.5,148.167 -0.5,110.5C 11.9988,106.168 24.6654,102.334 37.5,99C 186.462,61.886 332.129,71.886 474.5,129C 643.679,202.513 766.179,323.346 842,491.5C 911.077,659.084 915.577,828.417 855.5,999.5 Z"/></g>
<g><path style="opacity:1" fill="#f9f6a2" d="M 739.5,999.5 C 630.5,999.5 521.5,999.5 412.5,999.5C 411.632,990.062 408.132,981.728 402,974.5C 399.95,972.112 397.616,970.112 395,968.5C 385.984,978.355 377.484,988.689 369.5,999.5C 283.833,999.5 198.167,999.5 112.5,999.5C 110.902,947.125 88.5689,906.291 45.5,877C 31.1614,868.33 15.8281,862.163 -0.5,858.5C -0.5,754.833 -0.5,651.167 -0.5,547.5C 48.8601,580.579 100.527,584.412 154.5,559C 204.343,530.519 230.01,487.352 231.5,429.5C 228.511,368.647 199.844,324.813 145.5,298C 93.6845,276.763 45.0179,282.263 -0.5,314.5C -0.5,284.167 -0.5,253.833 -0.5,223.5C 28.5479,212.654 58.2146,203.821 88.5,197C 230.842,168.239 365.842,188.239 493.5,257C 634.022,338.096 726.522,456.929 771,613.5C 804.499,745.824 793.999,874.491 739.5,999.5 Z"/></g>
<g><path style="opacity:1" fill="#ef3638" d="M -0.5,547.5 C -0.5,469.833 -0.5,392.167 -0.5,314.5C 45.0179,282.263 93.6845,276.763 145.5,298C 199.844,324.813 228.511,368.647 231.5,429.5C 230.01,487.352 204.343,530.519 154.5,559C 100.527,584.412 48.8601,580.579 -0.5,547.5 Z"/></g>
<g><path style="opacity:1" fill="#7dcd52" d="M 376.5,333.5 C 407.876,330.92 428.043,344.586 437,374.5C 439.893,402.729 428.393,422.396 402.5,433.5C 392.075,401.39 381.741,369.223 371.5,337C 371.645,336.228 371.978,335.561 372.5,335C 374.058,334.79 375.391,334.29 376.5,333.5 Z"/></g>
<g><path style="opacity:1" fill="#ef3638" d="M 517.5,588.5 C 582.137,585.06 630.637,611.06 663,666.5C 679.449,699.762 683.116,734.428 674,770.5C 659.693,820.141 628.193,853.641 579.5,871C 519.613,887.988 468.113,874.155 425,829.5C 385.967,780.995 378.634,727.995 403,670.5C 427.545,624.144 465.712,596.811 517.5,588.5 Z"/></g>
<g><path style="opacity:1" fill="#7ecd52" d="M 204.5,684.5 C 213.337,684.196 222.003,685.196 230.5,687.5C 218.913,719.994 206.247,751.994 192.5,783.5C 169.249,771.672 159.082,752.672 162,726.5C 167.424,703.576 181.591,689.576 204.5,684.5 Z"/></g>
<g><path style="opacity:1" fill="#ef3638" d="M -0.5,858.5 C 15.8281,862.163 31.1614,868.33 45.5,877C 88.5689,906.291 110.902,947.125 112.5,999.5C 74.8333,999.5 37.1667,999.5 -0.5,999.5C -0.5,952.5 -0.5,905.5 -0.5,858.5 Z"/></g>
<g><path style="opacity:1" fill="#7ecd53" d="M 412.5,999.5 C 398.167,999.5 383.833,999.5 369.5,999.5C 377.484,988.689 385.984,978.355 395,968.5C 397.616,970.112 399.95,972.112 402,974.5C 408.132,981.728 411.632,990.062 412.5,999.5 Z"/></g>
</svg>
